<svg width="140" height="82" viewBox="0 0 140 82" fill="none" xmlns="http://www.w3.org/2000/svg">
<g filter="url(#filter0_d_48_59)">
<path d="M56.2012 15.18C57.0412 15.18 57.4612 15.74 57.4612 16.86C57.4612 17.14 57.4332 17.4667 57.3772 17.84C57.0972 19.6133 56.3599 21.4427 55.1652 23.328C54.3066 24.6907 53.4946 25.5493 52.7292 25.904C52.3559 27.92 52.0292 29.7493 51.7492 31.392H51.9452C53.5132 27.9013 55.0999 26.156 56.7052 26.156C57.2839 26.156 57.7319 26.3333 58.0492 26.688C58.3852 27.0427 58.5532 27.528 58.5532 28.144C58.5532 28.76 58.3106 30.1133 57.8252 32.204C57.3399 34.276 57.0972 35.7227 57.0972 36.544C57.0972 37.7573 57.3212 38.364 57.7692 38.364C57.7692 38.4947 57.6852 38.6253 57.5172 38.756C57.3492 38.8867 57.1532 38.952 56.9292 38.952C55.8466 38.952 55.3052 38.1027 55.3052 36.404C55.3052 35.3587 55.5759 33.8093 56.1172 31.756C56.6772 29.684 56.9572 28.3493 56.9572 27.752C56.9572 27.1547 56.7239 26.856 56.2572 26.856C55.7159 26.856 55.1186 27.3133 54.4652 28.228C53.8119 29.1427 53.2052 30.3093 52.6452 31.728C51.7119 34.0053 51.0119 35.9093 50.5452 37.44C50.4332 37.8133 50.2746 38 50.0692 38C49.7332 38 49.4812 37.7947 49.3132 37.384C49.2199 37.16 49.1732 36.9267 49.1732 36.684C49.1732 36.4227 49.2479 35.956 49.3972 35.284C49.5466 34.5933 49.7986 33.3893 50.1532 31.672C50.4892 29.9547 50.7786 28.536 51.0212 27.416C51.2639 26.2773 51.5439 25.008 51.8612 23.608C52.1786 22.1893 52.4772 21.0413 52.7572 20.164C53.0559 19.268 53.3919 18.4093 53.7652 17.588C54.4746 15.9827 55.2866 15.18 56.2012 15.18ZM56.8172 16.916C56.8172 16.3187 56.6492 15.9547 56.3132 15.824C55.2119 15.824 54.0732 18.904 52.8972 25.064C53.6439 24.5413 54.4186 23.496 55.2212 21.928C56.2852 19.8187 56.8172 18.148 56.8172 16.916ZM61.6656 38C61.143 38 60.8816 37.5987 60.8816 36.796C60.8816 36.3667 61.4043 33.24 62.4496 27.416C62.5243 27.024 62.6923 26.828 62.9536 26.828C63.2896 26.828 63.5416 27.0707 63.7096 27.556C63.803 27.8173 63.8496 28.1067 63.8496 28.424C63.8496 28.7227 63.8123 29.0493 63.7376 29.404L63.2896 31.7H63.4296C65.035 27.9667 66.5096 26.1 67.8536 26.1C68.6003 26.1 69.095 26.464 69.3376 27.192C69.431 27.472 69.4776 27.7987 69.4776 28.172C69.4776 28.5267 69.375 28.9187 69.1696 29.348C68.815 30.076 68.283 30.44 67.5736 30.44C67.4243 30.44 67.303 30.4027 67.2096 30.328C67.135 30.2533 67.0883 30.1507 67.0696 30.02C67.219 30.02 67.415 29.7493 67.6576 29.208C67.9003 28.648 68.0403 28.1347 68.0776 27.668C68.115 27.2013 67.9563 26.9307 67.6016 26.856C66.9483 26.856 66.1736 27.7053 65.2776 29.404C64.3816 31.1027 63.663 32.7267 63.1216 34.276C62.5803 35.8253 62.263 36.8333 62.1696 37.3C62.0763 37.7667 61.9083 38 61.6656 38ZM71.7811 33.912C71.7811 36.1707 72.5837 37.3 74.1891 37.3C74.7864 37.3 75.4117 37.0387 76.0651 36.516C76.7371 35.9747 77.3437 35.3307 77.8851 34.584C79.0797 32.8667 79.9197 31.4667 80.4051 30.384L80.7691 29.6H81.5251C81.2077 30.3467 80.7411 31.2707 80.1251 32.372C79.5091 33.4547 78.9211 34.3693 78.3611 35.116C77.8011 35.8627 77.1384 36.544 76.3731 37.16C75.6077 37.7573 74.8797 38.056 74.1891 38.056C71.4264 38.056 70.0451 36.5067 70.0451 33.408C70.0451 31.9707 70.4651 30.5333 71.3051 29.096C72.4624 27.0987 73.8904 26.1 75.5891 26.1C76.7837 26.1 77.3811 26.7533 77.3811 28.06C77.3811 29.0307 77.0077 30.0387 76.2611 31.084C75.2157 32.5027 73.9931 33.2213 72.5931 33.24C72.3877 33.24 72.2571 33.1467 72.2011 32.96L72.1731 32.848C73.1437 32.848 74.0677 32.2133 74.9451 30.944C75.8411 29.656 76.2891 28.5827 76.2891 27.724C76.2891 27.1453 76.0651 26.856 75.6171 26.856C74.6277 26.856 73.7037 27.724 72.8451 29.46C72.1357 30.9347 71.7811 32.4187 71.7811 33.912ZM81.4539 33.912C81.4539 36.1707 82.2566 37.3 83.8619 37.3C84.4592 37.3 85.0846 37.0387 85.7379 36.516C86.4099 35.9747 87.0166 35.3307 87.5579 34.584C88.7526 32.8667 89.5926 31.4667 90.0779 30.384L90.4419 29.6H91.1979C90.8806 30.3467 90.4139 31.2707 89.7979 32.372C89.1819 33.4547 88.5939 34.3693 88.0339 35.116C87.4739 35.8627 86.8112 36.544 86.0459 37.16C85.2806 37.7573 84.5526 38.056 83.8619 38.056C81.0992 38.056 79.7179 36.5067 79.7179 33.408C79.7179 31.9707 80.1379 30.5333 80.9779 29.096C82.1352 27.0987 83.5632 26.1 85.2619 26.1C86.4566 26.1 87.0539 26.7533 87.0539 28.06C87.0539 29.0307 86.6806 30.0387 85.9339 31.084C84.8886 32.5027 83.6659 33.2213 82.2659 33.24C82.0606 33.24 81.9299 33.1467 81.8739 32.96L81.8459 32.848C82.8166 32.848 83.7406 32.2133 84.6179 30.944C85.5139 29.656 85.9619 28.5827 85.9619 27.724C85.9619 27.1453 85.7379 26.856 85.2899 26.856C84.3006 26.856 83.3766 27.724 82.5179 29.46C81.8086 30.9347 81.4539 32.4187 81.4539 33.912Z" fill="#3DD2CC"/>
</g>
<g filter="url(#filter1_d_48_59)">
<path d="M34.7392 20.024C35.2619 20.024 35.6166 20.248 35.8032 20.696L35.8592 20.976C33.0966 20.976 31.3232 23.7573 30.5392 29.32C30.1659 31.8213 29.8486 34.584 29.5872 37.608C29.3259 40.5947 28.9339 43.6 28.4112 46.624C27.8886 49.6107 27.1419 52.3547 26.1712 54.856C25.2379 57.32 23.7632 59.3173 21.7472 60.848C19.7686 62.416 17.3232 63.2 14.4112 63.2C12.5072 63.2 10.8646 62.8267 9.48323 62.08C8.13923 61.3707 7.16857 60.4187 6.57123 59.224C5.82457 57.6933 5.45123 56.2373 5.45123 54.856C5.45123 53.4747 5.65657 52.168 6.06723 50.936C6.4779 49.6667 7.0379 48.4533 7.74723 47.296C8.4939 46.1013 9.46457 45.1493 10.6592 44.44C11.8539 43.6933 13.1232 43.32 14.4672 43.32C15.1766 43.32 15.6806 43.5813 15.9792 44.104L16.1472 44.384C13.0112 44.384 10.5286 45.8213 8.69923 48.696C7.50457 50.6 6.90723 52.56 6.90723 54.576C6.90723 55.2107 6.9819 55.864 7.13123 56.536C7.6539 59.2613 9.14723 60.904 11.6112 61.464C12.2086 61.6133 12.8246 61.688 13.4592 61.688C15.6992 61.688 17.6032 60.9227 19.1712 59.392C20.7392 57.8613 21.9339 55.8827 22.7552 53.456C23.5766 50.992 24.2672 48.2853 24.8272 45.336C25.3872 42.3493 25.8912 39.3813 26.3392 36.432C26.7872 33.4453 27.3099 30.7387 27.9072 28.312C28.5046 25.848 29.3632 23.8507 30.4832 22.32C31.6406 20.7893 33.0592 20.024 34.7392 20.024ZM46.5552 12.856C47.7872 12.856 48.4032 13.584 48.4032 15.04C48.4032 16.16 47.8059 17.2053 46.6112 18.176C45.4539 19.1093 43.6059 19.576 41.0672 19.576C38.5659 19.576 35.4112 18.96 31.6032 17.728C27.8326 16.496 24.8272 15.88 22.5872 15.88C17.7712 15.88 14.0192 17.8027 11.3312 21.648C9.5019 24.2613 8.58723 27.0613 8.58723 30.048C8.58723 34.304 10.0432 37.1227 12.9552 38.504C13.9632 38.9893 15.1019 39.232 16.3712 39.232C16.3712 39.4933 16.2219 39.7733 15.9232 40.072C15.6246 40.3707 15.2886 40.52 14.9152 40.52C10.9952 40.52 8.2699 38.896 6.73923 35.648C6.0299 34.1173 5.67523 32.512 5.67523 30.832C5.67523 29.152 6.01123 27.3787 6.68323 25.512C8.13923 21.48 10.7339 18.4933 14.4672 16.552C16.8939 15.32 19.4512 14.704 22.1392 14.704C24.8646 14.704 27.9632 15.2453 31.4352 16.328C34.9072 17.3733 37.7072 17.896 39.8352 17.896C43.0459 17.896 44.8939 17.1493 45.3792 15.656C45.6406 14.9467 45.5659 14.48 45.1552 14.256C45.0806 14.2187 45.0246 14.2 44.9872 14.2C45.2112 13.304 45.7339 12.856 46.5552 12.856Z" fill="#3DD2CC"/>
</g>
<g filter="url(#filter2_d_48_59)">
<path d="M37.5996 61V59.7183L38.7349 59.4985V51.8447L37.5996 51.625V50.3359H38.7349H41.8989L44.8066 57.77H44.8506L47.6631 50.3359H51.9697V51.625L50.8271 51.8447V59.4985L51.9697 59.7183V61H47.5532V59.7183L48.7471 59.4985V57.4551L48.7837 52.6431L48.7397 52.6357L45.5537 60.8535H43.9351L40.6758 52.7017L40.6318 52.709L40.7563 57.2354V59.4985L42.0161 59.7183V61H37.5996ZM57.6167 61.1538C56.8989 61.1538 56.2446 61.0195 55.6538 60.751C55.063 60.4824 54.5527 60.1064 54.123 59.623C53.6982 59.1348 53.3711 58.5635 53.1416 57.9092C52.9121 57.25 52.7974 56.5298 52.7974 55.7485V55.5874C52.7974 54.811 52.9121 54.0957 53.1416 53.4414C53.3711 52.7822 53.6982 52.2085 54.123 51.7202C54.5479 51.2319 55.0557 50.8535 55.6465 50.585C56.2373 50.3164 56.8916 50.1821 57.6094 50.1821C58.332 50.1821 58.9912 50.3164 59.5869 50.585C60.1826 50.8535 60.6953 51.2319 61.125 51.7202C61.5547 52.2085 61.8843 52.7822 62.1138 53.4414C62.3481 54.0957 62.4653 54.811 62.4653 55.5874V55.7485C62.4653 56.5298 62.3481 57.25 62.1138 57.9092C61.8843 58.5635 61.5547 59.1348 61.125 59.623C60.6953 60.1064 60.1826 60.4824 59.5869 60.751C58.9961 61.0195 58.3394 61.1538 57.6167 61.1538ZM57.6167 59.4912C58.2222 59.4912 58.7251 59.335 59.1255 59.0225C59.5259 58.71 59.8262 58.2729 60.0264 57.7114C60.2314 57.1499 60.334 56.4956 60.334 55.7485V55.5728C60.334 54.8354 60.2314 54.1885 60.0264 53.6318C59.8213 53.0703 59.5161 52.6333 59.1108 52.3208C58.7104 52.0083 58.21 51.8521 57.6094 51.8521C57.0137 51.8521 56.5181 52.0083 56.1226 52.3208C55.7271 52.6284 55.4292 53.0605 55.229 53.6172C55.0337 54.1738 54.936 54.8257 54.936 55.5728V55.7485C54.936 56.4956 55.0337 57.1499 55.229 57.7114C55.4292 58.2729 55.7271 58.71 56.1226 59.0225C56.5229 59.335 57.021 59.4912 57.6167 59.4912ZM67.3799 61L63.9521 51.7422L63 51.625V50.3359H67.2407V51.625L66.2812 51.7715L68.376 58.063L68.5371 58.6489H68.5811L68.7349 58.0776L70.8296 51.7715L69.709 51.625V50.3359H73.752V51.625L72.7852 51.7422L69.5698 61H67.3799ZM74.4111 61V59.7183L75.5464 59.4985V51.8447L74.4111 51.625V50.3359H78.8203V51.625L77.6851 51.8447V59.4985L78.8203 59.7183V61H74.4111ZM79.6406 61V59.7183L80.7759 59.4985V51.8447L79.6406 51.625V50.3359H87.917V53.2144H86.2764L86.1812 51.9839H82.9146V54.6646H86.5254V56.3125H82.9146V59.3594H86.3569L86.4521 58.085H88.0781V61H79.6406Z" fill="#3DD2CC"/>
</g>
<g filter="url(#filter3_d_48_59)">
<path d="M99 42.6095C99 32.3428 106.922 24 116.651 24C121.05 24 125.269 25.7238 128.53 28.8571C131.601 31.8095 133.579 35.7714 134.139 40.0666H135.277C135.675 40.0666 136 40.4095 136 40.8285V44.3999C136 44.819 135.675 45.1618 135.277 45.1618H134.139C133.642 48.9713 131.998 52.5904 129.469 55.3999C126.804 58.3713 123.236 60.3618 119.433 60.9903C119.036 61.057 118.665 60.7713 118.602 60.3618C118.539 59.9427 118.81 59.5522 119.198 59.4856C126.47 58.2665 132.052 52.0285 132.784 44.3142C132.82 43.9237 133.127 43.6285 133.507 43.6285H134.555V41.5809H133.498C133.127 41.5809 132.811 41.2857 132.775 40.8952C131.944 32.1238 125.016 25.5143 116.651 25.5143C107.717 25.5143 100.445 33.1809 100.445 42.5999C100.445 50.6475 105.865 57.6856 113.336 59.3237C113.724 59.4094 113.977 59.8094 113.896 60.2284C113.814 60.638 113.435 60.9046 113.038 60.8189C109.126 59.9618 105.567 57.6856 103.011 54.4094C100.427 51.0951 99 46.9047 99 42.6095ZM102.387 42.6095C102.387 34.3142 108.792 27.5714 116.651 27.5714C124.519 27.5714 130.914 34.3238 130.914 42.6095C130.914 46.3523 129.595 49.9428 127.202 52.7142C124.826 55.4665 121.592 57.1904 118.105 57.5713C117.708 57.6094 117.355 57.3046 117.31 56.8951C117.265 56.4761 117.563 56.1046 117.952 56.057C124.519 55.3523 129.46 49.5713 129.46 42.6095C129.46 35.1523 123.706 29.0952 116.642 29.0952C109.569 29.0952 103.824 35.1619 103.824 42.6095C103.824 49.3809 108.62 55.1427 114.989 56.0189C115.386 56.0761 115.666 56.457 115.612 56.8761C115.558 57.2951 115.197 57.5903 114.799 57.5332C107.726 56.5523 102.387 50.1428 102.387 42.6095ZM107.509 49.2285C107.509 48.9142 107.699 48.6094 108.006 48.5047L124.799 42.5999L109.659 37.2761L112.017 42.2571C112.116 42.4761 112.116 42.7237 112.017 42.9428L110.292 46.5713C110.111 46.9523 109.677 47.1047 109.325 46.9142C108.964 46.7237 108.819 46.2666 109 45.8952L110.572 42.6095L107.591 36.3238C107.464 36.0476 107.5 35.7142 107.69 35.4857C107.88 35.2571 108.187 35.1619 108.467 35.2666L127.319 41.8856C127.617 41.9904 127.816 42.2761 127.816 42.6095C127.816 42.9428 127.617 43.2285 127.319 43.3333L108.467 49.9618C108.087 50.0951 107.681 49.8761 107.554 49.4761C107.527 49.3904 107.509 49.3142 107.509 49.2285Z" fill="#3DD2CC"/>
</g>
<g filter="url(#filter4_d_48_59)">
<path d="M34.3333 43C34.3333 44.4728 35.5272 45.6667 37 45.6667C38.4728 45.6667 39.6667 44.4728 39.6667 43C39.6667 41.5272 38.4728 40.3333 37 40.3333C35.5272 40.3333 34.3333 41.5272 34.3333 43ZM37 43.5H89V42.5H37V43.5Z" fill="#3DD2CC"/>
</g>
<defs>
<filter id="filter0_d_48_59" x="44.1733" y="10.18" width="52.0247" height="33.772" filterUnits="userSpaceOnUse" color-interpolation-filters="sRGB">
<feFlood flood-opacity="0" result="BackgroundImageFix"/>
<feColorMatrix in="SourceAlpha" type="matrix" values="0 0 0 0 0 0 0 0 0 0 0 0 0 0 0 0 0 0 127 0" result="hardAlpha"/>
<feOffset/>
<feGaussianBlur stdDeviation="2.5"/>
<feComposite in2="hardAlpha" operator="out"/>
<feColorMatrix type="matrix" values="0 0 0 0 0.239216 0 0 0 0 0.823529 0 0 0 0 0.8 0 0 0 1 0"/>
<feBlend mode="normal" in2="BackgroundImageFix" result="effect1_dropShadow_48_59"/>
<feBlend mode="normal" in="SourceGraphic" in2="effect1_dropShadow_48_59" result="shape"/>
</filter>
<filter id="filter1_d_48_59" x="0.451172" y="7.85602" width="52.9521" height="60.344" filterUnits="userSpaceOnUse" color-interpolation-filters="sRGB">
<feFlood flood-opacity="0" result="BackgroundImageFix"/>
<feColorMatrix in="SourceAlpha" type="matrix" values="0 0 0 0 0 0 0 0 0 0 0 0 0 0 0 0 0 0 127 0" result="hardAlpha"/>
<feOffset/>
<feGaussianBlur stdDeviation="2.5"/>
<feComposite in2="hardAlpha" operator="out"/>
<feColorMatrix type="matrix" values="0 0 0 0 0.239216 0 0 0 0 0.823529 0 0 0 0 0.8 0 0 0 1 0"/>
<feBlend mode="normal" in2="BackgroundImageFix" result="effect1_dropShadow_48_59"/>
<feBlend mode="normal" in="SourceGraphic" in2="effect1_dropShadow_48_59" result="shape"/>
</filter>
<filter id="filter2_d_48_59" x="35.5996" y="48.1821" width="54.4785" height="14.9717" filterUnits="userSpaceOnUse" color-interpolation-filters="sRGB">
<feFlood flood-opacity="0" result="BackgroundImageFix"/>
<feColorMatrix in="SourceAlpha" type="matrix" values="0 0 0 0 0 0 0 0 0 0 0 0 0 0 0 0 0 0 127 0" result="hardAlpha"/>
<feOffset/>
<feGaussianBlur stdDeviation="1"/>
<feComposite in2="hardAlpha" operator="out"/>
<feColorMatrix type="matrix" values="0 0 0 0 0.239216 0 0 0 0 0.823529 0 0 0 0 0.8 0 0 0 1 0"/>
<feBlend mode="normal" in2="BackgroundImageFix" result="effect1_dropShadow_48_59"/>
<feBlend mode="normal" in="SourceGraphic" in2="effect1_dropShadow_48_59" result="shape"/>
</filter>
<filter id="filter3_d_48_59" x="95.5" y="20.5" width="44" height="44" filterUnits="userSpaceOnUse" color-interpolation-filters="sRGB">
<feFlood flood-opacity="0" result="BackgroundImageFix"/>
<feColorMatrix in="SourceAlpha" type="matrix" values="0 0 0 0 0 0 0 0 0 0 0 0 0 0 0 0 0 0 127 0" result="hardAlpha"/>
<feOffset/>
<feGaussianBlur stdDeviation="1.75"/>
<feComposite in2="hardAlpha" operator="out"/>
<feColorMatrix type="matrix" values="0 0 0 0 0.239216 0 0 0 0 0.823529 0 0 0 0 0.8 0 0 0 1 0"/>
<feBlend mode="normal" in2="BackgroundImageFix" result="effect1_dropShadow_48_59"/>
<feBlend mode="normal" in="SourceGraphic" in2="effect1_dropShadow_48_59" result="shape"/>
</filter>
<filter id="filter4_d_48_59" x="29.3333" y="35.3333" width="64.6667" height="15.3334" filterUnits="userSpaceOnUse" color-interpolation-filters="sRGB">
<feFlood flood-opacity="0" result="BackgroundImageFix"/>
<feColorMatrix in="SourceAlpha" type="matrix" values="0 0 0 0 0 0 0 0 0 0 0 0 0 0 0 0 0 0 127 0" result="hardAlpha"/>
<feOffset/>
<feGaussianBlur stdDeviation="2.5"/>
<feComposite in2="hardAlpha" operator="out"/>
<feColorMatrix type="matrix" values="0 0 0 0 0.239216 0 0 0 0 0.823529 0 0 0 0 0.8 0 0 0 1 0"/>
<feBlend mode="normal" in2="BackgroundImageFix" result="effect1_dropShadow_48_59"/>
<feBlend mode="normal" in="SourceGraphic" in2="effect1_dropShadow_48_59" result="shape"/>
</filter>
</defs>
</svg>
